<?xml version="1.0" encoding="UTF-8" standalone="no"?><svg xmlns="http://www.w3.org/2000/svg" xmlns:xlink="http://www.w3.org/1999/xlink" height="564" version="1.1" width="828"><defs/><g><g transform="translate(-110,-6) scale(1,1)"><rect fill="#C0C0C0" height="15" opacity="0.2" stroke="none" width="323.2" x="127" y="23"/></g><g transform="translate(-110,-6) scale(1,1)"><rect fill="#C0C0C0" height="530" opacity="0.2" stroke="none" width="808" x="127" y="37"/></g><g transform="translate(-110,-6) scale(1,1)"><rect fill="#ffffff" height="529" stroke="none" width="808" x="120" y="31"/></g><g transform="translate(-110,-6) scale(1,1)"><path d="M 120 31 L 928 31 L 928 560 L 120 560 L 120 31 Z Z" fill="none" stroke="#000000" stroke-miterlimit="10"/></g><g transform="translate(-110,-6) scale(1,1)"><rect fill="#ffffff" height="15" stroke="none" width="323.2" x="120" y="16"/></g><g transform="translate(-110,-6) scale(1,1)"><path d="M 120 16 L 443.2 16 L 443.2 31 L 120 31 L 120 16 Z Z" fill="none" stroke="#000000" stroke-miterlimit="10"/></g><g transform="translate(-110,-6) scale(1,1)"><rect fill="#ffffff" height="530" stroke="none" width="808" x="120" y="30"/></g><g transform="translate(-110,-6) scale(1,1)"><path d="M 120 30 L 928 30 L 928 560 L 120 560 L 120 30 Z Z" fill="none" stroke="#000000" stroke-miterlimit="10"/></g><g transform="translate(-110,-6) scale(1,1)"><g><path fill="none" stroke="none"/><text fill="#000000" font-family="Arial" font-size="13px" font-style="normal" font-weight="bold" stroke="none" text-decoration="none" x="490.766845703125" y="50.5">remoteview</text></g></g><g transform="translate(-110,-6) scale(1,1)"><rect fill="#C0C0C0" height="351" opacity="0.2" stroke="none" width="599" x="175" y="191"/></g><g transform="translate(-110,-6) scale(1,1)"><rect fill="#ffffff" height="351" stroke="none" width="599" x="168" y="184"/></g><g transform="translate(-110,-6) scale(1,1)"><path d="M 168 184 L 767 184 L 767 535 L 168 535 L 168 184 Z Z" fill="none" stroke="#000000" stroke-miterlimit="10"/></g><g transform="translate(-110,-6) scale(1,1)"><path d="M 168 209 L 767 209" fill="none" stroke="#000000" stroke-miterlimit="10"/></g><g transform="translate(-110,-6) scale(1,1)"><path d="M 168 262 L 767 262" fill="none" stroke="#000000" stroke-miterlimit="10"/></g><g transform="translate(-110,-6) scale(1,1)"><g><path fill="none" stroke="none"/><text fill="#000000" font-family="Arial" font-size="13px" font-style="normal" font-weight="bold" stroke="none" text-decoration="none" x="430.769287109375" y="203.5">RemoteView</text></g></g><g transform="translate(-110,-6) scale(1,1)"><g><path fill="none" stroke="none"/><text fill="#000000" font-family="Arial" font-size="13px" font-style="normal" font-weight="normal" stroke="none" text-decoration="none" x="173" y="226.5">-connectedPlayers: Map&lt;String; Connection&gt;</text></g></g><g transform="translate(-110,-6) scale(1,1)"><g><path fill="none" stroke="none"/><text fill="#000000" font-family="Arial" font-size="13px" font-style="normal" font-weight="normal" stroke="none" text-decoration="none" x="173" y="241.5">-submissionPublisher: SubmissionPublisher&lt;PlayerAction&gt;</text></g></g><g transform="translate(-110,-6) scale(1,1)"><g><path fill="none" stroke="none"/><text fill="#000000" font-family="Arial" font-size="13px" font-style="normal" font-weight="normal" stroke="none" text-decoration="none" x="173" y="256.5">-subscription: Subscription</text></g></g><g transform="translate(-110,-6) scale(1,1)"><g><path fill="none" stroke="none"/><text fill="#000000" font-family="Arial" font-size="13px" font-style="normal" font-weight="normal" stroke="none" text-decoration="none" x="173" y="279.5">+constructor(controller: Controller)</text></g></g><g transform="translate(-110,-6) scale(1,1)"><g><path fill="none" stroke="none"/><text fill="#000000" font-family="Arial" font-size="13px" font-style="normal" font-weight="normal" stroke="none" text-decoration="none" x="173" y="294.5">+connectPlayer(nickname: String, connection: Connection)</text></g></g><g transform="translate(-110,-6) scale(1,1)"><g><path fill="none" stroke="none"/><text fill="#000000" font-family="Arial" font-size="13px" font-style="normal" font-weight="normal" stroke="none" text-decoration="none" x="173" y="309.5">+disconnectPlayer(nickname: String)</text></g></g><g transform="translate(-110,-6) scale(1,1)"><g><path fill="none" stroke="none"/><text fill="#000000" font-family="Arial" font-size="13px" font-style="normal" font-weight="normal" stroke="none" text-decoration="none" x="173" y="324.5">+raiseError(nickname: String, errorText: String)</text></g></g><g transform="translate(-110,-6) scale(1,1)"><g><path fill="none" stroke="none"/><text fill="#000000" font-family="Arial" font-size="13px" font-style="normal" font-weight="normal" stroke="none" text-decoration="none" x="173" y="339.5">+onSubscribe(subscription: Subscription)</text></g></g><g transform="translate(-110,-6) scale(1,1)"><g><path fill="none" stroke="none"/><text fill="#000000" font-family="Arial" font-size="13px" font-style="normal" font-weight="normal" stroke="none" text-decoration="none" x="173" y="354.5">+onNext(item: Renderable)</text></g></g><g transform="translate(-110,-6) scale(1,1)"><g><path fill="none" stroke="none"/><text fill="#000000" font-family="Arial" font-size="13px" font-style="normal" font-weight="normal" stroke="none" text-decoration="none" x="173" y="369.5">+onError(throwable: Throwable)</text></g></g><g transform="translate(-110,-6) scale(1,1)"><g><path fill="none" stroke="none"/><text fill="#000000" font-family="Arial" font-size="13px" font-style="normal" font-weight="normal" stroke="none" text-decoration="none" x="173" y="384.5">+onComplete()</text></g></g><g transform="translate(-110,-6) scale(1,1)"><path d="M 533 183 L 557 121" fill="none" stroke="#000000" stroke-dasharray="3" stroke-miterlimit="10"/></g><g transform="translate(-110,-6) scale(1,1)"><path d="M 557.51399255713 142.99399489977242 L 557 121 L 541.8113446836146 136.91555056163745" fill="#FFFFFF" stroke="none"/></g><g transform="translate(-110,-6) scale(1,1)"><path d="M 557.51399255713 142.99399489977242 L 557 121 L 541.8113446836146 136.91555056163745 L 557.51399255713 142.99399489977242" fill="none" stroke="#000000" stroke-miterlimit="10"/></g><g transform="translate(-110,-6) scale(1,1)"><rect fill="#C0C0C0" height="48" opacity="0.2" stroke="none" width="109.6484375" x="519" y="79"/></g><g transform="translate(-110,-6) scale(1,1)"><rect fill="#ffffff" height="48" stroke="none" width="109.6484375" x="512" y="72"/></g><g transform="translate(-110,-6) scale(1,1)"><path d="M 512 72 L 621.6484375 72 L 621.6484375 120 L 512 120 L 512 72 Z Z" fill="none" stroke="#000000" stroke-miterlimit="10"/></g><g transform="translate(-110,-6) scale(1,1)"><g><path fill="none" stroke="none"/><text fill="#000000" font-family="Arial" font-size="13px" font-style="normal" font-weight="normal" stroke="none" text-decoration="none" x="534.663818359375" y="89.5">«interface»</text></g></g><g transform="translate(-110,-6) scale(1,1)"><g><path fill="none" stroke="none"/><text fill="#000000" font-family="Arial" font-size="13px" font-style="normal" font-weight="bold" stroke="none" text-decoration="none" x="520.584716796875" y="104.5">Flow.Subscriber</text></g></g><g transform="translate(-110,-6) scale(1,1)"><path d="M 617 327 L 572 121" fill="none" stroke="#000000" stroke-dasharray="3" stroke-miterlimit="10"/></g><g transform="translate(-110,-6) scale(1,1)"><path d="M 584.5627906807541 139.06035133411186 L 572 121 L 568.1126375820264 142.65383137995045" fill="#FFFFFF" stroke="none"/></g><g transform="translate(-110,-6) scale(1,1)"><path d="M 584.5627906807541 139.06035133411186 L 572 121 L 568.1126375820264 142.65383137995045 L 584.5627906807541 139.06035133411186" fill="none" stroke="#000000" stroke-miterlimit="10"/></g><g transform="translate(-110,-6) scale(1,1)"><rect fill="#C0C0C0" height="151" opacity="0.2" stroke="none" width="245.64697265625" x="519" y="335"/></g><g transform="translate(-110,-6) scale(1,1)"><rect fill="#ffffff" height="151" stroke="none" width="245.64697265625" x="512" y="328"/></g><g transform="translate(-110,-6) scale(1,1)"><path d="M 512 328 L 757.64697265625 328 L 757.64697265625 479 L 512 479 L 512 328 Z Z" fill="none" stroke="#000000" stroke-miterlimit="10"/></g><g transform="translate(-110,-6) scale(1,1)"><path d="M 512 353 L 757.64697265625 353" fill="none" stroke="#000000" stroke-miterlimit="10"/></g><g transform="translate(-110,-6) scale(1,1)"><path d="M 512 376 L 757.64697265625 376" fill="none" stroke="#000000" stroke-miterlimit="10"/></g><g transform="translate(-110,-6) scale(1,1)"><g><path fill="none" stroke="none"/><text fill="#000000" font-family="Arial" font-size="13px" font-style="normal" font-weight="bold" stroke="none" text-decoration="none" x="554.9921875" y="347.5">NetworkMessageForwarder</text></g></g><g transform="translate(-110,-6) scale(1,1)"><g><path fill="none" stroke="none"/><text fill="#000000" font-family="Arial" font-size="13px" font-style="normal" font-weight="normal" stroke="none" text-decoration="none" x="517" y="370.5">-connectionSubscription: Subscription</text></g></g><g transform="translate(-110,-6) scale(1,1)"><g><path fill="none" stroke="none"/><text fill="#000000" font-family="Arial" font-size="13px" font-style="normal" font-weight="normal" stroke="none" text-decoration="none" x="517" y="393.5">+onSubscribe(subscription: Subscription)</text></g></g><g transform="translate(-110,-6) scale(1,1)"><g><path fill="none" stroke="none"/><text fill="#000000" font-family="Arial" font-size="13px" font-style="normal" font-weight="normal" stroke="none" text-decoration="none" x="517" y="408.5">+onNext(item: PlayerAction)</text></g></g><g transform="translate(-110,-6) scale(1,1)"><g><path fill="none" stroke="none"/><text fill="#000000" font-family="Arial" font-size="13px" font-style="normal" font-weight="normal" stroke="none" text-decoration="none" x="517" y="423.5">+onError(throwable: Throwable)</text></g></g><g transform="translate(-110,-6) scale(1,1)"><g><path fill="none" stroke="none"/><text fill="#000000" font-family="Arial" font-size="13px" font-style="normal" font-weight="normal" stroke="none" text-decoration="none" x="517" y="438.5">+onComplete()</text></g></g></g></svg>