<?xml version="1.0" encoding="UTF-8" standalone="no"?><svg xmlns="http://www.w3.org/2000/svg" xmlns:xlink="http://www.w3.org/1999/xlink" height="1028" version="1.1" width="940"><defs/><g><g transform="translate(-54,-94) scale(1,1)"><rect fill="#C0C0C0" height="15" opacity="0.2" stroke="none" width="368" x="71" y="111"/></g><g transform="translate(-54,-94) scale(1,1)"><rect fill="#C0C0C0" height="994" opacity="0.2" stroke="none" width="920" x="71" y="125"/></g><g transform="translate(-54,-94) scale(1,1)"><rect fill="#ffffff" height="993" stroke="none" width="920" x="64" y="119"/></g><g transform="translate(-54,-94) scale(1,1)"><path d="M 64 119 L 984 119 L 984 1112 L 64 1112 L 64 119 Z Z" fill="none" stroke="#000000" stroke-miterlimit="10"/></g><g transform="translate(-54,-94) scale(1,1)"><rect fill="#ffffff" height="15" stroke="none" width="368" x="64" y="104"/></g><g transform="translate(-54,-94) scale(1,1)"><path d="M 64 104 L 432 104 L 432 119 L 64 119 L 64 104 Z Z" fill="none" stroke="#000000" stroke-miterlimit="10"/></g><g transform="translate(-54,-94) scale(1,1)"><rect fill="#ffffff" height="994" stroke="none" width="920" x="64" y="118"/></g><g transform="translate(-54,-94) scale(1,1)"><path d="M 64 118 L 984 118 L 984 1112 L 64 1112 L 64 118 Z Z" fill="none" stroke="#000000" stroke-miterlimit="10"/></g><g transform="translate(-54,-94) scale(1,1)"><g><path fill="none" stroke="none"/><text fill="#000000" font-family="Arial" font-size="13px" font-style="normal" font-weight="bold" stroke="none" text-decoration="none" x="505.94091796875" y="138.5">server</text></g></g><g transform="translate(-54,-94) scale(1,1)"><rect fill="#C0C0C0" height="280" opacity="0.2" stroke="none" width="418.32861328125" x="95" y="175"/></g><g transform="translate(-54,-94) scale(1,1)"><rect fill="#ffffff" height="280" stroke="none" width="418.32861328125" x="88" y="168"/></g><g transform="translate(-54,-94) scale(1,1)"><path d="M 88 168 L 506.32861328125 168 L 506.32861328125 448 L 88 448 L 88 168 Z Z" fill="none" stroke="#000000" stroke-miterlimit="10"/></g><g transform="translate(-54,-94) scale(1,1)"><path d="M 88 193 L 506.32861328125 193" fill="none" stroke="#000000" stroke-miterlimit="10"/></g><g transform="translate(-54,-94) scale(1,1)"><path d="M 88 306 L 506.32861328125 306" fill="none" stroke="#000000" stroke-miterlimit="10"/></g><g transform="translate(-54,-94) scale(1,1)"><g><path fill="none" stroke="none"/><text fill="#000000" font-family="Arial" font-size="13px" font-style="normal" font-weight="bold" stroke="none" text-decoration="none" x="278.019775390625" y="187.5">Server</text></g></g><g transform="translate(-54,-94) scale(1,1)"><g><path fill="none" stroke="none"/><text fill="#000000" font-family="Arial" font-size="13px" font-style="normal" font-weight="normal" stroke="none" text-decoration="none" x="93" y="210.5">-players: Map&lt;Integer, List&lt;String&gt;&gt;</text></g></g><g transform="translate(-54,-94) scale(1,1)"><g><path fill="none" stroke="none"/><text fill="#000000" font-family="Arial" font-size="13px" font-style="normal" font-weight="normal" stroke="none" text-decoration="none" x="93" y="225.5">-port: int</text></g></g><g transform="translate(-54,-94) scale(1,1)"><g><path fill="none" stroke="none"/><text fill="#000000" font-family="Arial" font-size="13px" font-style="normal" font-weight="normal" stroke="none" text-decoration="none" x="93" y="240.5">-currentGames: Map&lt;Integer, Game&gt;</text></g></g><g transform="translate(-54,-94) scale(1,1)"><g><path fill="none" stroke="none"/><text fill="#000000" font-family="Arial" font-size="13px" font-style="normal" font-weight="normal" stroke="none" text-decoration="none" x="93" y="255.5">-serverSocket: ServerSocket</text></g></g><g transform="translate(-54,-94) scale(1,1)"><g><path fill="none" stroke="none"/><text fill="#000000" font-family="Arial" font-size="13px" font-style="normal" font-weight="normal" stroke="none" text-decoration="none" x="93" y="270.5">-dormantGames: List&lt;Integer&gt;</text></g></g><g transform="translate(-54,-94) scale(1,1)"><g><path fill="none" stroke="none"/><text fill="#000000" font-family="Arial" font-size="13px" font-style="normal" font-weight="normal" stroke="none" text-decoration="none" x="93" y="285.5">-gameIDControllerMap: Map&lt;Integer, Controller&gt;</text></g></g><g transform="translate(-54,-94) scale(1,1)"><g><path fill="none" stroke="none"/><text fill="#000000" font-family="Arial" font-size="13px" font-style="normal" font-weight="normal" stroke="none" text-decoration="none" x="93" y="300.5">-waitingThreads: Queue&lt;Thread&gt;</text></g></g><g transform="translate(-54,-94) scale(1,1)"><g><path fill="none" stroke="none"/><text fill="#000000" font-family="Arial" font-size="13px" font-style="normal" font-weight="normal" stroke="none" text-decoration="none" x="93" y="323.5">+start()</text></g></g><g transform="translate(-54,-94) scale(1,1)"><g><path fill="none" stroke="none"/><text fill="#000000" font-family="Arial" font-size="13px" font-style="normal" font-weight="normal" stroke="none" text-decoration="none" x="93" y="338.5">+checkDormantGames()</text></g></g><g transform="translate(-54,-94) scale(1,1)"><g><path fill="none" stroke="none"/><text fill="#000000" font-family="Arial" font-size="13px" font-style="normal" font-weight="normal" stroke="none" text-decoration="none" x="93" y="353.5">+restoreGame(gameId: int, game: Game)</text></g></g><g transform="translate(-54,-94) scale(1,1)"><g><path fill="none" stroke="none"/><text fill="#000000" font-family="Arial" font-size="13px" font-style="normal" font-weight="normal" stroke="none" text-decoration="none" x="93" y="368.5">+restoreGame(gameId: Integer, game: Game, nickname: String)</text></g></g><g transform="translate(-54,-94) scale(1,1)"><g><path fill="none" stroke="none"/><text fill="#000000" font-family="Arial" font-size="13px" font-style="normal" font-weight="normal" stroke="none" text-decoration="none" x="93" y="383.5">+wakeUpThread()</text></g></g><g transform="translate(-54,-94) scale(1,1)"><g><path fill="none" stroke="none"/><text fill="#000000" font-family="Arial" font-size="13px" font-style="normal" font-weight="normal" stroke="none" text-decoration="none" x="93" y="398.5">+playerAlreadyConnected(nickname: String, id: Integer)</text></g></g><g transform="translate(-54,-94) scale(1,1)"><g><path fill="none" stroke="none"/><text fill="#000000" font-family="Arial" font-size="13px" font-style="normal" font-weight="normal" stroke="none" text-decoration="none" x="93" y="413.5">-createDefaultGameDir()</text></g></g><g transform="translate(-54,-94) scale(1,1)"><rect fill="#C0C0C0" height="250" opacity="0.2" stroke="none" width="351" x="119" y="607"/></g><g transform="translate(-54,-94) scale(1,1)"><rect fill="#ffffff" height="250" stroke="none" width="351" x="112" y="600"/></g><g transform="translate(-54,-94) scale(1,1)"><path d="M 112 600 L 463 600 L 463 850 L 112 850 L 112 600 Z Z" fill="none" stroke="#000000" stroke-miterlimit="10"/></g><g transform="translate(-54,-94) scale(1,1)"><path d="M 112 625 L 463 625" fill="none" stroke="#000000" stroke-miterlimit="10"/></g><g transform="translate(-54,-94) scale(1,1)"><path d="M 112 708 L 463 708" fill="none" stroke="#000000" stroke-miterlimit="10"/></g><g transform="translate(-54,-94) scale(1,1)"><g><path fill="none" stroke="none"/><text fill="#000000" font-family="Arial" font-size="13px" font-style="normal" font-weight="bold" stroke="none" text-decoration="none" x="269.7900390625" y="619.5">Lobby</text></g></g><g transform="translate(-54,-94) scale(1,1)"><g><path fill="none" stroke="none"/><text fill="#000000" font-family="Arial" font-size="13px" font-style="normal" font-weight="normal" stroke="none" text-decoration="none" x="117" y="642.5">-players: Map&lt;String, Connection&gt;</text></g></g><g transform="translate(-54,-94) scale(1,1)"><g><path fill="none" stroke="none"/><text fill="#000000" font-family="Arial" font-size="13px" font-style="normal" font-weight="normal" stroke="none" text-decoration="none" x="117" y="657.5">-size: int</text></g></g><g transform="translate(-54,-94) scale(1,1)"><g><path fill="none" stroke="none"/><text fill="#000000" font-family="Arial" font-size="13px" font-style="normal" font-weight="normal" stroke="none" text-decoration="none" x="117" y="672.5">-maxGameID: int</text></g></g><g transform="translate(-54,-94) scale(1,1)"><g><path fill="none" stroke="none"/><text fill="#000000" font-family="Arial" font-size="13px" font-style="normal" font-weight="normal" stroke="none" text-decoration="none" x="117" y="687.5">-instance: Lobby</text></g></g><g transform="translate(-54,-94) scale(1,1)"><g><path fill="none" stroke="none"/><text fill="#000000" font-family="Arial" font-size="13px" font-style="normal" font-weight="normal" stroke="none" text-decoration="none" x="117" y="702.5">-server: Server</text></g></g><g transform="translate(-54,-94) scale(1,1)"><g><path fill="none" stroke="none"/><text fill="#000000" font-family="Arial" font-size="13px" font-style="normal" font-weight="normal" stroke="none" text-decoration="none" x="117" y="725.5">+addPlayer(nickname: String, connection: Connection)</text></g></g><g transform="translate(-54,-94) scale(1,1)"><g><path fill="none" stroke="none"/><text fill="#000000" font-family="Arial" font-size="13px" font-style="normal" font-weight="normal" stroke="none" text-decoration="none" x="117" y="740.5">+isFull(): boolean</text></g></g><g transform="translate(-54,-94) scale(1,1)"><g><path fill="none" stroke="none"/><text fill="#000000" font-family="Arial" font-size="13px" font-style="normal" font-weight="normal" stroke="none" text-decoration="none" x="117" y="755.5">+getInstance(): Lobby</text></g></g><g transform="translate(-54,-94) scale(1,1)"><g><path fill="none" stroke="none"/><text fill="#000000" font-family="Arial" font-size="13px" font-style="normal" font-weight="normal" stroke="none" text-decoration="none" x="117" y="770.5">+startGame()</text></g></g><g transform="translate(-54,-94) scale(1,1)"><g><path fill="none" stroke="none"/><text fill="#000000" font-family="Arial" font-size="13px" font-style="normal" font-weight="normal" stroke="none" text-decoration="none" x="117" y="785.5">+clear()</text></g></g><g transform="translate(-54,-94) scale(1,1)"><g><path fill="none" stroke="none"/><text fill="#000000" font-family="Arial" font-size="13px" font-style="normal" font-weight="normal" stroke="none" text-decoration="none" x="117" y="800.5">+isEmpty()</text></g></g><g transform="translate(-54,-94) scale(1,1)"><g><path fill="none" stroke="none"/><text fill="#000000" font-family="Arial" font-size="13px" font-style="normal" font-weight="normal" stroke="none" text-decoration="none" x="117" y="815.5">+setSize(size: int)</text></g></g><g transform="translate(-54,-94) scale(1,1)"><g><path fill="none" stroke="none"/><text fill="#000000" font-family="Arial" font-size="13px" font-style="normal" font-weight="normal" stroke="none" text-decoration="none" x="117" y="830.5">+nicknameAvailable()</text></g></g><g transform="translate(-54,-94) scale(1,1)"><g><path fill="none" stroke="none"/><text fill="#000000" font-family="Arial" font-size="13px" font-style="normal" font-weight="normal" stroke="none" text-decoration="none" x="117" y="845.5">+removePlayer(nickname: String)</text></g></g><g transform="translate(-54,-94) scale(1,1)"><path d="M 287 600 L 287 448" fill="none" stroke="#000000" stroke-miterlimit="10"/></g><g transform="translate(-54,-94) scale(1,1)"><path d="M 291.209517756016 458.16267485762415 L 287 448 L 282.790482243984 458.16267485762415 L 287 470" fill="#000000" stroke="none"/></g><g transform="translate(-54,-94) scale(1,1)"><path d="M 291.209517756016 458.16267485762415 L 287 448 L 282.790482243984 458.16267485762415 L 287 470 L 291.209517756016 458.16267485762415" fill="none" stroke="#000000" stroke-miterlimit="10"/></g><g transform="translate(-54,-94) scale(1,1)"><g><path fill="none" stroke="none"/><text fill="#000000" font-family="Arial" font-size="13px" font-style="normal" font-weight="normal" stroke="none" text-decoration="none" x="246.5" y="588.5">+0...n</text></g></g><g transform="translate(-54,-94) scale(1,1)"><g><path fill="none" stroke="none"/><text fill="#000000" font-family="Arial" font-size="13px" font-style="normal" font-weight="normal" stroke="none" text-decoration="none" x="264.5" y="479.5">+1</text></g></g><g transform="translate(-54,-94) scale(1,1)"><rect fill="#C0C0C0" height="430" opacity="0.2" stroke="none" width="405.27783203125" x="551" y="455"/></g><g transform="translate(-54,-94) scale(1,1)"><rect fill="#ffffff" height="430" stroke="none" width="405.27783203125" x="544" y="448"/></g><g transform="translate(-54,-94) scale(1,1)"><path d="M 544 448 L 949.27783203125 448 L 949.27783203125 878 L 544 878 L 544 448 Z Z" fill="none" stroke="#000000" stroke-miterlimit="10"/></g><g transform="translate(-54,-94) scale(1,1)"><path d="M 544 473 L 949.27783203125 473" fill="none" stroke="#000000" stroke-miterlimit="10"/></g><g transform="translate(-54,-94) scale(1,1)"><path d="M 544 631 L 949.27783203125 631" fill="none" stroke="#000000" stroke-miterlimit="10"/></g><g transform="translate(-54,-94) scale(1,1)"><g><path fill="none" stroke="none"/><text fill="#000000" font-family="Arial" font-size="13px" font-style="normal" font-weight="bold" stroke="none" text-decoration="none" x="713.7548828125" y="467.5">Connection</text></g></g><g transform="translate(-54,-94) scale(1,1)"><g><path fill="none" stroke="none"/><text fill="#000000" font-family="Arial" font-size="13px" font-style="normal" font-weight="normal" stroke="none" text-decoration="none" x="549" y="490.5">-socket: Socket</text></g></g><g transform="translate(-54,-94) scale(1,1)"><g><path fill="none" stroke="none"/><text fill="#000000" font-family="Arial" font-size="13px" font-style="normal" font-weight="normal" stroke="none" text-decoration="none" x="549" y="505.5">-server: Server</text></g></g><g transform="translate(-54,-94) scale(1,1)"><g><path fill="none" stroke="none"/><text fill="#000000" font-family="Arial" font-size="13px" font-style="normal" font-weight="normal" stroke="none" text-decoration="none" x="549" y="520.5">-outputStream: ObjectOutputStream</text></g></g><g transform="translate(-54,-94) scale(1,1)"><g><path fill="none" stroke="none"/><text fill="#000000" font-family="Arial" font-size="13px" font-style="normal" font-weight="normal" stroke="none" text-decoration="none" x="549" y="535.5">-inputStream: ObjectInputStream</text></g></g><g transform="translate(-54,-94) scale(1,1)"><g><path fill="none" stroke="none"/><text fill="#000000" font-family="Arial" font-size="13px" font-style="normal" font-weight="normal" stroke="none" text-decoration="none" x="549" y="550.5">-nickname: String</text></g></g><g transform="translate(-54,-94) scale(1,1)"><g><path fill="none" stroke="none"/><text fill="#000000" font-family="Arial" font-size="13px" font-style="normal" font-weight="normal" stroke="none" text-decoration="none" x="549" y="565.5">-gameId: int</text></g></g><g transform="translate(-54,-94) scale(1,1)"><g><path fill="none" stroke="none"/><text fill="#000000" font-family="Arial" font-size="13px" font-style="normal" font-weight="normal" stroke="none" text-decoration="none" x="549" y="580.5">-isActive: boolean</text></g></g><g transform="translate(-54,-94) scale(1,1)"><g><path fill="none" stroke="none"/><text fill="#000000" font-family="Arial" font-size="13px" font-style="normal" font-weight="normal" stroke="none" text-decoration="none" x="549" y="595.5">-state: ConnectionState</text></g></g><g transform="translate(-54,-94) scale(1,1)"><g><path fill="none" stroke="none"/><text fill="#000000" font-family="Arial" font-size="13px" font-style="normal" font-weight="normal" stroke="none" text-decoration="none" x="549" y="610.5">-logger: Logger</text></g></g><g transform="translate(-54,-94) scale(1,1)"><g><path fill="none" stroke="none"/><text fill="#000000" font-family="Arial" font-size="13px" font-style="normal" font-weight="normal" stroke="none" text-decoration="none" x="549" y="625.5">-submissionPublisher: SubmissionPublisher&lt;PlayerAction&gt;</text></g></g><g transform="translate(-54,-94) scale(1,1)"><g><path fill="none" stroke="none"/><text fill="#000000" font-family="Arial" font-size="13px" font-style="normal" font-weight="normal" stroke="none" text-decoration="none" x="549" y="648.5">+readFromInputStream()</text></g></g><g transform="translate(-54,-94) scale(1,1)"><g><path fill="none" stroke="none"/><text fill="#000000" font-family="Arial" font-size="13px" font-style="normal" font-weight="normal" stroke="none" text-decoration="none" x="549" y="663.5">+run()</text></g></g><g transform="translate(-54,-94) scale(1,1)"><g><path fill="none" stroke="none"/><text fill="#000000" font-family="Arial" font-size="13px" font-style="normal" font-weight="normal" stroke="none" text-decoration="none" x="549" y="678.5">+closeConnection()</text></g></g><g transform="translate(-54,-94) scale(1,1)"><g><path fill="none" stroke="none"/><text fill="#000000" font-family="Arial" font-size="13px" font-style="normal" font-weight="normal" stroke="none" text-decoration="none" x="549" y="693.5">+sendAuthenticationRequest()</text></g></g><g transform="translate(-54,-94) scale(1,1)"><g><path fill="none" stroke="none"/><text fill="#000000" font-family="Arial" font-size="13px" font-style="normal" font-weight="normal" stroke="none" text-decoration="none" x="549" y="708.5">+invalidMessage()</text></g></g><g transform="translate(-54,-94) scale(1,1)"><g><path fill="none" stroke="none"/><text fill="#000000" font-family="Arial" font-size="13px" font-style="normal" font-weight="normal" stroke="none" text-decoration="none" x="549" y="723.5">+unavailableNickname()</text></g></g><g transform="translate(-54,-94) scale(1,1)"><g><path fill="none" stroke="none"/><text fill="#000000" font-family="Arial" font-size="13px" font-style="normal" font-weight="normal" stroke="none" text-decoration="none" x="549" y="738.5">+invalidSize()</text></g></g><g transform="translate(-54,-94) scale(1,1)"><g><path fill="none" stroke="none"/><text fill="#000000" font-family="Arial" font-size="13px" font-style="normal" font-weight="normal" stroke="none" text-decoration="none" x="549" y="753.5">+waitForPlayers()</text></g></g><g transform="translate(-54,-94) scale(1,1)"><g><path fill="none" stroke="none"/><text fill="#000000" font-family="Arial" font-size="13px" font-style="normal" font-weight="normal" stroke="none" text-decoration="none" x="549" y="768.5">+unavailableNickname()</text></g></g><g transform="translate(-54,-94) scale(1,1)"><g><path fill="none" stroke="none"/><text fill="#000000" font-family="Arial" font-size="13px" font-style="normal" font-weight="normal" stroke="none" text-decoration="none" x="549" y="783.5">+wrongNickname()</text></g></g><g transform="translate(-54,-94) scale(1,1)"><g><path fill="none" stroke="none"/><text fill="#000000" font-family="Arial" font-size="13px" font-style="normal" font-weight="normal" stroke="none" text-decoration="none" x="549" y="798.5">+send(renderable: Renderable)</text></g></g><g transform="translate(-54,-94) scale(1,1)"><g><path fill="none" stroke="none"/><text fill="#000000" font-family="Arial" font-size="13px" font-style="normal" font-weight="normal" stroke="none" text-decoration="none" x="549" y="813.5">+invalidMessage()</text></g></g><g transform="translate(-54,-94) scale(1,1)"><g><path fill="none" stroke="none"/><text fill="#000000" font-family="Arial" font-size="13px" font-style="normal" font-weight="normal" stroke="none" text-decoration="none" x="549" y="828.5">+subscribe(networkMessageForwarder: NetworkMessageForwarder)</text></g></g><g transform="translate(-54,-94) scale(1,1)"><g><path fill="none" stroke="none"/><text fill="#000000" font-family="Arial" font-size="13px" font-style="normal" font-weight="normal" stroke="none" text-decoration="none" x="549" y="843.5">+publish(playerAction: PlayerAction)</text></g></g><g transform="translate(-54,-94) scale(1,1)"><g><path fill="none" stroke="none"/><text fill="#000000" font-family="Arial" font-size="13px" font-style="normal" font-weight="normal" stroke="none" text-decoration="none" x="549" y="858.5">+setState(state: ConnectionState)</text></g></g><g transform="translate(-54,-94) scale(1,1)"><path d="M 624 448 L 624 312 L 506 312" fill="none" stroke="#000000" stroke-miterlimit="10"/></g><g transform="translate(-54,-94) scale(1,1)"><path d="M 516.1626748576241 307.790482243984 L 506 312 L 516.1626748576241 316.209517756016 L 528 312" fill="#000000" stroke="none"/></g><g transform="translate(-54,-94) scale(1,1)"><path d="M 516.1626748576241 307.790482243984 L 506 312 L 516.1626748576241 316.209517756016 L 528 312 L 516.1626748576241 307.790482243984" fill="none" stroke="#000000" stroke-miterlimit="10"/></g><g transform="translate(-54,-94) scale(1,1)"><g><path fill="none" stroke="none"/><text fill="#000000" font-family="Arial" font-size="13px" font-style="normal" font-weight="normal" stroke="none" text-decoration="none" x="623.5" y="432.5">0...n</text></g></g><g transform="translate(-54,-94) scale(1,1)"><g><path fill="none" stroke="none"/><text fill="#000000" font-family="Arial" font-size="13px" font-style="normal" font-weight="normal" stroke="none" text-decoration="none" x="523.5" y="305.5">1</text></g></g><g transform="translate(-54,-94) scale(1,1)"><path d="M 544 712 L 463 712" fill="none" stroke="#000000" stroke-miterlimit="10"/></g><g transform="translate(-54,-94) scale(1,1)"><path d="M 473.16267485762415 707.790482243984 L 463 712 L 473.16267485762415 716.209517756016" fill="none" stroke="#000000" stroke-miterlimit="10"/></g><g transform="translate(-54,-94) scale(1,1)"><rect fill="#C0C0C0" height="111" opacity="0.2" stroke="none" width="263" x="543" y="167"/></g><g transform="translate(-54,-94) scale(1,1)"><rect fill="#ffffff" height="111" stroke="none" width="263" x="536" y="160"/></g><g transform="translate(-54,-94) scale(1,1)"><path d="M 536 160 L 799 160 L 799 271 L 536 271 L 536 160 Z Z" fill="none" stroke="#000000" stroke-miterlimit="10"/></g><g transform="translate(-54,-94) scale(1,1)"><path d="M 536 185 L 799 185" fill="none" stroke="#000000" stroke-miterlimit="10"/></g><g transform="translate(-54,-94) scale(1,1)"><path d="M 536 195 L 799 195" fill="none" stroke="#000000" stroke-miterlimit="10"/></g><g transform="translate(-54,-94) scale(1,1)"><g><path fill="none" stroke="none"/><text fill="#000000" font-family="Arial" font-size="13px" font-style="normal" font-weight="bold" stroke="none" text-decoration="none" x="636.7900390625" y="179.5">ServerApp</text></g></g><g transform="translate(-54,-94) scale(1,1)"><g><path fill="none" stroke="none"/><text fill="#000000" font-family="Arial" font-size="13px" font-style="normal" font-weight="normal" stroke="none" text-decoration="none" x="541" y="212.5">+main()</text></g></g><g transform="translate(-54,-94) scale(1,1)"><path d="M 507 255 L 535 248" fill="none" stroke="#000000" stroke-miterlimit="10"/></g><g transform="translate(-54,-94) scale(1,1)"><path d="M 526.1617152255172 254.54864277886242 L 535 248 L 524.1197991854035 246.3809786184074" fill="none" stroke="#000000" stroke-miterlimit="10"/></g><g transform="translate(-54,-94) scale(1,1)"><rect fill="#C0C0C0" height="15" opacity="0.2" stroke="none" width="214.39999999999998" x="351" y="935"/></g><g transform="translate(-54,-94) scale(1,1)"><rect fill="#C0C0C0" height="153" opacity="0.2" stroke="none" width="536" x="351" y="949"/></g><g transform="translate(-54,-94) scale(1,1)"><rect fill="#ffffff" height="152" stroke="none" width="536" x="344" y="943"/></g><g transform="translate(-54,-94) scale(1,1)"><path d="M 344 943 L 880 943 L 880 1095 L 344 1095 L 344 943 Z Z" fill="none" stroke="#000000" stroke-miterlimit="10"/></g><g transform="translate(-54,-94) scale(1,1)"><rect fill="#ffffff" height="15" stroke="none" width="214.39999999999998" x="344" y="928"/></g><g transform="translate(-54,-94) scale(1,1)"><path d="M 344 928 L 558.4 928 L 558.4 943 L 344 943 L 344 928 Z Z" fill="none" stroke="#000000" stroke-miterlimit="10"/></g><g transform="translate(-54,-94) scale(1,1)"><rect fill="#ffffff" height="153" stroke="none" width="536" x="344" y="942"/></g><g transform="translate(-54,-94) scale(1,1)"><path d="M 344 942 L 880 942 L 880 1095 L 344 1095 L 344 942 Z Z" fill="none" stroke="#000000" stroke-miterlimit="10"/></g><g transform="translate(-54,-94) scale(1,1)"><g><path fill="none" stroke="none"/><text fill="#000000" font-family="Arial" font-size="13px" font-style="normal" font-weight="bold" stroke="none" text-decoration="none" x="597.908203125" y="962.5">state</text></g></g><g transform="translate(-54,-94) scale(1,1)"><rect fill="#C0C0C0" height="87" opacity="0.2" stroke="none" width="348.244140625" x="527" y="991"/></g><g transform="translate(-54,-94) scale(1,1)"><rect fill="#ffffff" height="87" stroke="none" width="348.244140625" x="520" y="984"/></g><g transform="translate(-54,-94) scale(1,1)"><path d="M 520 984 L 868.244140625 984 L 868.244140625 1071 L 520 1071 L 520 984 Z Z" fill="none" stroke="#000000" stroke-miterlimit="10"/></g><g transform="translate(-54,-94) scale(1,1)"><path d="M 520 1009 L 868.244140625 1009" fill="none" stroke="#000000" stroke-miterlimit="10"/></g><g transform="translate(-54,-94) scale(1,1)"><path d="M 520 1019 L 868.244140625 1019" fill="none" stroke="#000000" stroke-miterlimit="10"/></g><g transform="translate(-54,-94) scale(1,1)"><g><path fill="none" stroke="none"/><text fill="#000000" font-family="Arial" font-size="13px" font-style="italic" font-weight="bold" stroke="none" text-decoration="none" x="651.157958984375" y="1003.5">ConnectionState</text></g></g><g transform="translate(-54,-94) scale(1,1)"><g><path fill="none" stroke="none"/><text fill="#000000" font-family="Arial" font-size="13px" font-style="normal" font-weight="normal" stroke="none" text-decoration="none" x="525" y="1036.5">+messageAllowed(serializedMessage: SerializedMessage)</text></g></g><g transform="translate(-54,-94) scale(1,1)"><g><path fill="none" stroke="none"/><text fill="#000000" font-family="Arial" font-size="13px" font-style="normal" font-weight="normal" stroke="none" text-decoration="none" x="525" y="1051.5">+invalidMessage()</text></g></g><g transform="translate(-54,-94) scale(1,1)"><g><path fill="none" stroke="none"/><text fill="#000000" font-family="Arial" font-size="13px" font-style="normal" font-weight="normal" stroke="none" text-decoration="none" x="525" y="1066.5">+readMessage(serializedMessage: SerializedMessage)</text></g></g><g transform="translate(-54,-94) scale(1,1)"><rect fill="#C0C0C0" height="55" opacity="0.2" stroke="none" width="131.78271484375" x="367" y="975"/></g><g transform="translate(-54,-94) scale(1,1)"><rect fill="#ffffff" height="55" stroke="none" width="131.78271484375" x="360" y="968"/></g><g transform="translate(-54,-94) scale(1,1)"><path d="M 360 968 L 491.78271484375 968 L 491.78271484375 1023 L 360 1023 L 360 968 Z Z" fill="none" stroke="#000000" stroke-miterlimit="10"/></g><g transform="translate(-54,-94) scale(1,1)"><path d="M 360 993 L 491.78271484375 993" fill="none" stroke="#000000" stroke-miterlimit="10"/></g><g transform="translate(-54,-94) scale(1,1)"><path d="M 360 1003 L 491.78271484375 1003" fill="none" stroke="#000000" stroke-miterlimit="10"/></g><g transform="translate(-54,-94) scale(1,1)"><g><path fill="none" stroke="none"/><text fill="#000000" font-family="Arial" font-size="13px" font-style="normal" font-weight="bold" stroke="none" text-decoration="none" x="369.517822265625" y="987.5">AuthenticationState</text></g></g><g transform="translate(-54,-94) scale(1,1)"><rect fill="#C0C0C0" height="47" opacity="0.2" stroke="none" width="144.31298828125" x="367" y="1047"/></g><g transform="translate(-54,-94) scale(1,1)"><rect fill="#ffffff" height="47" stroke="none" width="144.31298828125" x="360" y="1040"/></g><g transform="translate(-54,-94) scale(1,1)"><path d="M 360 1040 L 504.31298828125 1040 L 504.31298828125 1087 L 360 1087 L 360 1040 Z Z" fill="none" stroke="#000000" stroke-miterlimit="10"/></g><g transform="translate(-54,-94) scale(1,1)"><path d="M 360 1065 L 504.31298828125 1065" fill="none" stroke="#000000" stroke-miterlimit="10"/></g><g transform="translate(-54,-94) scale(1,1)"><path d="M 360 1075 L 504.31298828125 1075" fill="none" stroke="#000000" stroke-miterlimit="10"/></g><g transform="translate(-54,-94) scale(1,1)"><g><path fill="none" stroke="none"/><text fill="#000000" font-family="Arial" font-size="13px" font-style="normal" font-weight="bold" stroke="none" text-decoration="none" x="368.095947265625" y="1059.5">WaitingForGameState</text></g></g><g transform="translate(-54,-94) scale(1,1)"><rect fill="#C0C0C0" height="47" opacity="0.2" stroke="none" width="87.025390625" x="775" y="967"/></g><g transform="translate(-54,-94) scale(1,1)"><rect fill="#ffffff" height="47" stroke="none" width="87.025390625" x="768" y="960"/></g><g transform="translate(-54,-94) scale(1,1)"><path d="M 768 960 L 855.025390625 960 L 855.025390625 1007 L 768 1007 L 768 960 Z Z" fill="none" stroke="#000000" stroke-miterlimit="10"/></g><g transform="translate(-54,-94) scale(1,1)"><path d="M 768 985 L 855.025390625 985" fill="none" stroke="#000000" stroke-miterlimit="10"/></g><g transform="translate(-54,-94) scale(1,1)"><path d="M 768 995 L 855.025390625 995" fill="none" stroke="#000000" stroke-miterlimit="10"/></g><g transform="translate(-54,-94) scale(1,1)"><g><path fill="none" stroke="none"/><text fill="#000000" font-family="Arial" font-size="13px" font-style="normal" font-weight="bold" stroke="none" text-decoration="none" x="775.016845703125" y="979.5">PlayingState</text></g></g><g transform="translate(-54,-94) scale(1,1)"><path d="M 493 1003 L 519 1006" fill="none" stroke="#000000" stroke-miterlimit="10"/></g><g transform="translate(-54,-94) scale(1,1)"><path d="M 508.4217957662524 1009.0168850142364 L 519 1006 L 509.3868202019142 1000.6533399051674" fill="none" stroke="#000000" stroke-miterlimit="10"/></g><g transform="translate(-54,-94) scale(1,1)"><path d="M 505 1053 L 519 1051" fill="none" stroke="#000000" stroke-miterlimit="10"/></g><g transform="translate(-54,-94) scale(1,1)"><path d="M 509.53478088061274 1056.6044292324898 L 519 1051 L 508.3441494602911 1048.2700092902382" fill="none" stroke="#000000" stroke-miterlimit="10"/></g><g transform="translate(-54,-94) scale(1,1)"><path d="M 767 1000 L 694 1027" fill="none" stroke="#000000" stroke-miterlimit="10"/></g><g transform="translate(-54,-94) scale(1,1)"><path d="M 702.0713455093625 1019.5264879963637 L 694 1027 L 704.99187416002 1027.4227321259195" fill="none" stroke="#000000" stroke-miterlimit="10"/></g><g transform="translate(-54,-94) scale(1,1)"><path d="M 700 983 L 715 879" fill="none" stroke="#000000" stroke-miterlimit="10"/></g><g transform="translate(-54,-94) scale(1,1)"><path d="M 717.715646593979 889.6595151661138 L 715 879 L 709.3828366637888 888.4576675800287" fill="none" stroke="#000000" stroke-miterlimit="10"/></g></g></svg>