<?xml version="1.0" encoding="UTF-8" standalone="no"?><svg xmlns="http://www.w3.org/2000/svg" xmlns:xlink="http://www.w3.org/1999/xlink" height="1044" version="1.1" width="2412"><defs/><g><g transform="translate(-54,-78) scale(1,1)"><rect fill="#C0C0C0" height="15" opacity="0.2" stroke="none" width="339.2" x="71" y="111"/></g><g transform="translate(-54,-78) scale(1,1)"><rect fill="#C0C0C0" height="994" opacity="0.2" stroke="none" width="848" x="71" y="125"/></g><g transform="translate(-54,-78) scale(1,1)"><rect fill="#ffffff" height="993" stroke="none" width="848" x="64" y="119"/></g><g transform="translate(-54,-78) scale(1,1)"><path d="M 64 119 L 912 119 L 912 1112 L 64 1112 L 64 119 Z Z" fill="none" stroke="#000000" stroke-miterlimit="10"/></g><g transform="translate(-54,-78) scale(1,1)"><rect fill="#ffffff" height="15" stroke="none" width="339.2" x="64" y="104"/></g><g transform="translate(-54,-78) scale(1,1)"><path d="M 64 104 L 403.2 104 L 403.2 119 L 64 119 L 64 104 Z Z" fill="none" stroke="#000000" stroke-miterlimit="10"/></g><g transform="translate(-54,-78) scale(1,1)"><rect fill="#ffffff" height="994" stroke="none" width="848" x="64" y="118"/></g><g transform="translate(-54,-78) scale(1,1)"><path d="M 64 118 L 912 118 L 912 1112 L 64 1112 L 64 118 Z Z" fill="none" stroke="#000000" stroke-miterlimit="10"/></g><g transform="translate(-54,-78) scale(1,1)"><g><path fill="none" stroke="none"/><text fill="#000000" font-family="Arial" font-size="13px" font-style="normal" font-weight="bold" stroke="none" text-decoration="none" x="469.94091796875" y="138.5">server</text></g></g><g transform="translate(-54,-78) scale(1,1)"><rect fill="#C0C0C0" height="15" opacity="0.2" stroke="none" width="182.4000000000001" x="2007" y="111"/></g><g transform="translate(-54,-78) scale(1,1)"><rect fill="#C0C0C0" height="714" opacity="0.2" stroke="none" width="456" x="2007" y="125"/></g><g transform="translate(-54,-78) scale(1,1)"><rect fill="#ffffff" height="713" stroke="none" width="456" x="2000" y="119"/></g><g transform="translate(-54,-78) scale(1,1)"><path d="M 2000 119 L 2456 119 L 2456 832 L 2000 832 L 2000 119 Z Z" fill="none" stroke="#000000" stroke-miterlimit="10"/></g><g transform="translate(-54,-78) scale(1,1)"><rect fill="#ffffff" height="15" stroke="none" width="182.4000000000001" x="2000" y="104"/></g><g transform="translate(-54,-78) scale(1,1)"><path d="M 2000 104 L 2182.4 104 L 2182.4 119 L 2000 119 L 2000 104 Z Z" fill="none" stroke="#000000" stroke-miterlimit="10"/></g><g transform="translate(-54,-78) scale(1,1)"><rect fill="#ffffff" height="714" stroke="none" width="456" x="2000" y="118"/></g><g transform="translate(-54,-78) scale(1,1)"><path d="M 2000 118 L 2456 118 L 2456 832 L 2000 832 L 2000 118 Z Z" fill="none" stroke="#000000" stroke-miterlimit="10"/></g><g transform="translate(-54,-78) scale(1,1)"><g><path fill="none" stroke="none"/><text fill="#000000" font-family="Arial" font-size="13px" font-style="normal" font-weight="bold" stroke="none" text-decoration="none" x="2212.825927734375" y="138.5">client</text></g></g><g transform="translate(-54,-78) scale(1,1)"><rect fill="#C0C0C0" height="280" opacity="0.2" stroke="none" width="418.32861328125" x="95" y="175"/></g><g transform="translate(-54,-78) scale(1,1)"><rect fill="#ffffff" height="280" stroke="none" width="418.32861328125" x="88" y="168"/></g><g transform="translate(-54,-78) scale(1,1)"><path d="M 88 168 L 506.32861328125 168 L 506.32861328125 448 L 88 448 L 88 168 Z Z" fill="none" stroke="#000000" stroke-miterlimit="10"/></g><g transform="translate(-54,-78) scale(1,1)"><path d="M 88 193 L 506.32861328125 193" fill="none" stroke="#000000" stroke-miterlimit="10"/></g><g transform="translate(-54,-78) scale(1,1)"><path d="M 88 276 L 506.32861328125 276" fill="none" stroke="#000000" stroke-miterlimit="10"/></g><g transform="translate(-54,-78) scale(1,1)"><g><path fill="none" stroke="none"/><text fill="#000000" font-family="Arial" font-size="13px" font-style="normal" font-weight="bold" stroke="none" text-decoration="none" x="278.019775390625" y="187.5">Server</text></g></g><g transform="translate(-54,-78) scale(1,1)"><g><path fill="none" stroke="none"/><text fill="#000000" font-family="Arial" font-size="13px" font-style="normal" font-weight="normal" stroke="none" text-decoration="none" x="93" y="210.5">-players: Map&lt;String, Integer&gt;</text></g></g><g transform="translate(-54,-78) scale(1,1)"><g><path fill="none" stroke="none"/><text fill="#000000" font-family="Arial" font-size="13px" font-style="normal" font-weight="normal" stroke="none" text-decoration="none" x="93" y="225.5">-port: int</text></g></g><g transform="translate(-54,-78) scale(1,1)"><g><path fill="none" stroke="none"/><text fill="#000000" font-family="Arial" font-size="13px" font-style="normal" font-weight="normal" stroke="none" text-decoration="none" x="93" y="240.5">-currentGames: Map&lt;Integer, Game&gt;</text></g></g><g transform="translate(-54,-78) scale(1,1)"><g><path fill="none" stroke="none"/><text fill="#000000" font-family="Arial" font-size="13px" font-style="normal" font-weight="normal" stroke="none" text-decoration="none" x="93" y="255.5">-serverSocket: ServerSocket</text></g></g><g transform="translate(-54,-78) scale(1,1)"><g><path fill="none" stroke="none"/><text fill="#000000" font-family="Arial" font-size="13px" font-style="normal" font-weight="normal" stroke="none" text-decoration="none" x="93" y="270.5">-dormantGames: List&lt;Integer&gt;</text></g></g><g transform="translate(-54,-78) scale(1,1)"><g><path fill="none" stroke="none"/><text fill="#000000" font-family="Arial" font-size="13px" font-style="normal" font-weight="normal" stroke="none" text-decoration="none" x="93" y="293.5">+start()</text></g></g><g transform="translate(-54,-78) scale(1,1)"><g><path fill="none" stroke="none"/><text fill="#000000" font-family="Arial" font-size="13px" font-style="normal" font-weight="normal" stroke="none" text-decoration="none" x="93" y="308.5">+checkDisconnectedPlayer(nickname: String, gameId: int): Game</text></g></g><g transform="translate(-54,-78) scale(1,1)"><g><path fill="none" stroke="none"/><text fill="#000000" font-family="Arial" font-size="13px" font-style="normal" font-weight="normal" stroke="none" text-decoration="none" x="93" y="323.5">+checkNicknameAvailability(nickname: String): boolean</text></g></g><g transform="translate(-54,-78) scale(1,1)"><g><path fill="none" stroke="none"/><text fill="#000000" font-family="Arial" font-size="13px" font-style="normal" font-weight="normal" stroke="none" text-decoration="none" x="93" y="338.5">+checkDormantGames()</text></g></g><g transform="translate(-54,-78) scale(1,1)"><g><path fill="none" stroke="none"/><text fill="#000000" font-family="Arial" font-size="13px" font-style="normal" font-weight="normal" stroke="none" text-decoration="none" x="93" y="353.5">+restoreGame(gameId: int, game: Game)</text></g></g><g transform="translate(-54,-78) scale(1,1)"><rect fill="#C0C0C0" height="199" opacity="0.2" stroke="none" width="351" x="119" y="607"/></g><g transform="translate(-54,-78) scale(1,1)"><rect fill="#ffffff" height="199" stroke="none" width="351" x="112" y="600"/></g><g transform="translate(-54,-78) scale(1,1)"><path d="M 112 600 L 463 600 L 463 799 L 112 799 L 112 600 Z Z" fill="none" stroke="#000000" stroke-miterlimit="10"/></g><g transform="translate(-54,-78) scale(1,1)"><path d="M 112 625 L 463 625" fill="none" stroke="#000000" stroke-miterlimit="10"/></g><g transform="translate(-54,-78) scale(1,1)"><path d="M 112 693 L 463 693" fill="none" stroke="#000000" stroke-miterlimit="10"/></g><g transform="translate(-54,-78) scale(1,1)"><g><path fill="none" stroke="none"/><text fill="#000000" font-family="Arial" font-size="13px" font-style="normal" font-weight="bold" stroke="none" text-decoration="none" x="269.7900390625" y="619.5">Lobby</text></g></g><g transform="translate(-54,-78) scale(1,1)"><g><path fill="none" stroke="none"/><text fill="#000000" font-family="Arial" font-size="13px" font-style="normal" font-weight="normal" stroke="none" text-decoration="none" x="117" y="642.5">-players: List&lt;String&gt;</text></g></g><g transform="translate(-54,-78) scale(1,1)"><g><path fill="none" stroke="none"/><text fill="#000000" font-family="Arial" font-size="13px" font-style="normal" font-weight="normal" stroke="none" text-decoration="none" x="117" y="657.5">-size: int</text></g></g><g transform="translate(-54,-78) scale(1,1)"><g><path fill="none" stroke="none"/><text fill="#000000" font-family="Arial" font-size="13px" font-style="normal" font-weight="normal" stroke="none" text-decoration="none" x="117" y="672.5">-maxGameID: int</text></g></g><g transform="translate(-54,-78) scale(1,1)"><g><path fill="none" stroke="none"/><text fill="#000000" font-family="Arial" font-size="13px" font-style="normal" font-weight="normal" stroke="none" text-decoration="none" x="117" y="687.5">-instance: Lobby</text></g></g><g transform="translate(-54,-78) scale(1,1)"><g><path fill="none" stroke="none"/><text fill="#000000" font-family="Arial" font-size="13px" font-style="normal" font-weight="normal" stroke="none" text-decoration="none" x="117" y="710.5">+addPlayer(nickname: String)</text></g></g><g transform="translate(-54,-78) scale(1,1)"><g><path fill="none" stroke="none"/><text fill="#000000" font-family="Arial" font-size="13px" font-style="normal" font-weight="normal" stroke="none" text-decoration="none" x="117" y="725.5">+isFull(): boolean</text></g></g><g transform="translate(-54,-78) scale(1,1)"><g><path fill="none" stroke="none"/><text fill="#000000" font-family="Arial" font-size="13px" font-style="normal" font-weight="normal" stroke="none" text-decoration="none" x="117" y="740.5">+getInstance(): Lobby</text></g></g><g transform="translate(-54,-78) scale(1,1)"><g><path fill="none" stroke="none"/><text fill="#000000" font-family="Arial" font-size="13px" font-style="normal" font-weight="normal" stroke="none" text-decoration="none" x="117" y="755.5">+startGame()</text></g></g><g transform="translate(-54,-78) scale(1,1)"><g><path fill="none" stroke="none"/><text fill="#000000" font-family="Arial" font-size="13px" font-style="normal" font-weight="normal" stroke="none" text-decoration="none" x="117" y="770.5">+clear()</text></g></g><g transform="translate(-54,-78) scale(1,1)"><g><path fill="none" stroke="none"/><text fill="#000000" font-family="Arial" font-size="13px" font-style="normal" font-weight="normal" stroke="none" text-decoration="none" x="117" y="785.5">+isEmpty()</text></g></g><g transform="translate(-54,-78) scale(1,1)"><path d="M 287 600 L 287 448" fill="none" stroke="#000000" stroke-miterlimit="10"/></g><g transform="translate(-54,-78) scale(1,1)"><path d="M 291.209517756016 458.16267485762415 L 287 448 L 282.790482243984 458.16267485762415 L 287 470" fill="#000000" stroke="none"/></g><g transform="translate(-54,-78) scale(1,1)"><path d="M 291.209517756016 458.16267485762415 L 287 448 L 282.790482243984 458.16267485762415 L 287 470 L 291.209517756016 458.16267485762415" fill="none" stroke="#000000" stroke-miterlimit="10"/></g><g transform="translate(-54,-78) scale(1,1)"><g><path fill="none" stroke="none"/><text fill="#000000" font-family="Arial" font-size="13px" font-style="normal" font-weight="normal" stroke="none" text-decoration="none" x="246.5" y="588.5">+0...n</text></g></g><g transform="translate(-54,-78) scale(1,1)"><g><path fill="none" stroke="none"/><text fill="#000000" font-family="Arial" font-size="13px" font-style="normal" font-weight="normal" stroke="none" text-decoration="none" x="264.5" y="479.5">+1</text></g></g><g transform="translate(-54,-78) scale(1,1)"><rect fill="#C0C0C0" height="15" opacity="0.2" stroke="none" width="182.4000000000001" x="1207" y="95"/></g><g transform="translate(-54,-78) scale(1,1)"><rect fill="#C0C0C0" height="714" opacity="0.2" stroke="none" width="456" x="1207" y="109"/></g><g transform="translate(-54,-78) scale(1,1)"><rect fill="#ffffff" height="713" stroke="none" width="456" x="1200" y="103"/></g><g transform="translate(-54,-78) scale(1,1)"><path d="M 1200 103 L 1656 103 L 1656 816 L 1200 816 L 1200 103 Z Z" fill="none" stroke="#000000" stroke-miterlimit="10"/></g><g transform="translate(-54,-78) scale(1,1)"><rect fill="#ffffff" height="15" stroke="none" width="182.4000000000001" x="1200" y="88"/></g><g transform="translate(-54,-78) scale(1,1)"><path d="M 1200 88 L 1382.4 88 L 1382.4 103 L 1200 103 L 1200 88 Z Z" fill="none" stroke="#000000" stroke-miterlimit="10"/></g><g transform="translate(-54,-78) scale(1,1)"><rect fill="#ffffff" height="714" stroke="none" width="456" x="1200" y="102"/></g><g transform="translate(-54,-78) scale(1,1)"><path d="M 1200 102 L 1656 102 L 1656 816 L 1200 816 L 1200 102 Z Z" fill="none" stroke="#000000" stroke-miterlimit="10"/></g><g transform="translate(-54,-78) scale(1,1)"><g><path fill="none" stroke="none"/><text fill="#000000" font-family="Arial" font-size="13px" font-style="normal" font-weight="bold" stroke="none" text-decoration="none" x="1398.37548828125" y="122.5">messages</text></g></g><g transform="translate(-54,-78) scale(1,1)"><rect fill="#C0C0C0" height="239" opacity="0.2" stroke="none" width="343" x="2071" y="407"/></g><g transform="translate(-54,-78) scale(1,1)"><rect fill="#ffffff" height="239" stroke="none" width="343" x="2064" y="400"/></g><g transform="translate(-54,-78) scale(1,1)"><path d="M 2064 400 L 2407 400 L 2407 639 L 2064 639 L 2064 400 Z Z" fill="none" stroke="#000000" stroke-miterlimit="10"/></g><g transform="translate(-54,-78) scale(1,1)"><path d="M 2064 425 L 2407 425" fill="none" stroke="#000000" stroke-miterlimit="10"/></g><g transform="translate(-54,-78) scale(1,1)"><path d="M 2064 508 L 2407 508" fill="none" stroke="#000000" stroke-miterlimit="10"/></g><g transform="translate(-54,-78) scale(1,1)"><g><path fill="none" stroke="none"/><text fill="#000000" font-family="Arial" font-size="13px" font-style="normal" font-weight="bold" stroke="none" text-decoration="none" x="2218.8818359375" y="419.5">Client</text></g></g><g transform="translate(-54,-78) scale(1,1)"><g><path fill="none" stroke="none"/><text fill="#000000" font-family="Arial" font-size="13px" font-style="normal" font-weight="normal" stroke="none" text-decoration="none" x="2069" y="442.5">+clientSocket: Socket</text></g></g><g transform="translate(-54,-78) scale(1,1)"><g><path fill="none" stroke="none"/><text fill="#000000" font-family="Arial" font-size="13px" font-style="normal" font-weight="normal" stroke="none" text-decoration="none" x="2069" y="457.5">+outputStream: OutputStream</text></g></g><g transform="translate(-54,-78) scale(1,1)"><g><path fill="none" stroke="none"/><text fill="#000000" font-family="Arial" font-size="13px" font-style="normal" font-weight="normal" stroke="none" text-decoration="none" x="2069" y="472.5">+reader: InputStream</text></g></g><g transform="translate(-54,-78) scale(1,1)"><g><path fill="none" stroke="none"/><text fill="#000000" font-family="Arial" font-size="13px" font-style="normal" font-weight="normal" stroke="none" text-decoration="none" x="2069" y="487.5">+clientPort: int</text></g></g><g transform="translate(-54,-78) scale(1,1)"><g><path fill="none" stroke="none"/><text fill="#000000" font-family="Arial" font-size="13px" font-style="normal" font-weight="normal" stroke="none" text-decoration="none" x="2069" y="502.5">+clientIPAddress: String</text></g></g><g transform="translate(-54,-78) scale(1,1)"><g><path fill="none" stroke="none"/><text fill="#000000" font-family="Arial" font-size="13px" font-style="normal" font-weight="normal" stroke="none" text-decoration="none" x="2069" y="525.5">+sendMessage(message: ClientMessage)</text></g></g><g transform="translate(-54,-78) scale(1,1)"><g><path fill="none" stroke="none"/><text fill="#000000" font-family="Arial" font-size="13px" font-style="normal" font-weight="normal" stroke="none" text-decoration="none" x="2069" y="540.5">-elaborateMessage(message: ServerMessage)</text></g></g><g transform="translate(-54,-78) scale(1,1)"><g><path fill="none" stroke="none"/><text fill="#000000" font-family="Arial" font-size="13px" font-style="normal" font-weight="normal" stroke="none" text-decoration="none" x="2069" y="555.5">+createSocket()</text></g></g><g transform="translate(-54,-78) scale(1,1)"><g><path fill="none" stroke="none"/><text fill="#000000" font-family="Arial" font-size="13px" font-style="normal" font-weight="normal" stroke="none" text-decoration="none" x="2069" y="570.5">+serialize()</text></g></g><g transform="translate(-54,-78) scale(1,1)"><g><path fill="none" stroke="none"/><text fill="#000000" font-family="Arial" font-size="13px" font-style="normal" font-weight="normal" stroke="none" text-decoration="none" x="2069" y="585.5">+deserialize()</text></g></g><g transform="translate(-54,-78) scale(1,1)"><rect fill="#C0C0C0" height="15" opacity="0.2" stroke="none" width="143.5999999999999" x="1255" y="527"/></g><g transform="translate(-54,-78) scale(1,1)"><rect fill="#C0C0C0" height="249" opacity="0.2" stroke="none" width="359" x="1255" y="541"/></g><g transform="translate(-54,-78) scale(1,1)"><rect fill="#ffffff" height="248" stroke="none" width="359" x="1248" y="535"/></g><g transform="translate(-54,-78) scale(1,1)"><path d="M 1248 535 L 1607 535 L 1607 783 L 1248 783 L 1248 535 Z Z" fill="none" stroke="#000000" stroke-miterlimit="10"/></g><g transform="translate(-54,-78) scale(1,1)"><rect fill="#ffffff" height="15" stroke="none" width="143.5999999999999" x="1248" y="520"/></g><g transform="translate(-54,-78) scale(1,1)"><path d="M 1248 520 L 1391.6 520 L 1391.6 535 L 1248 535 L 1248 520 Z Z" fill="none" stroke="#000000" stroke-miterlimit="10"/></g><g transform="translate(-54,-78) scale(1,1)"><rect fill="#ffffff" height="249" stroke="none" width="359" x="1248" y="534"/></g><g transform="translate(-54,-78) scale(1,1)"><path d="M 1248 534 L 1607 534 L 1607 783 L 1248 783 L 1248 534 Z Z" fill="none" stroke="#000000" stroke-miterlimit="10"/></g><g transform="translate(-54,-78) scale(1,1)"><g><path fill="none" stroke="none"/><text fill="#000000" font-family="Arial" font-size="13px" font-style="normal" font-weight="bold" stroke="none" text-decoration="none" x="1382.701416015625" y="554.5">clientmessages</text></g></g><g transform="translate(-54,-78) scale(1,1)"><rect fill="#C0C0C0" height="15" opacity="0.2" stroke="none" width="144" x="1255" y="183"/></g><g transform="translate(-54,-78) scale(1,1)"><rect fill="#C0C0C0" height="249" opacity="0.2" stroke="none" width="360" x="1255" y="197"/></g><g transform="translate(-54,-78) scale(1,1)"><rect fill="#ffffff" height="248" stroke="none" width="360" x="1248" y="191"/></g><g transform="translate(-54,-78) scale(1,1)"><path d="M 1248 191 L 1608 191 L 1608 439 L 1248 439 L 1248 191 Z Z" fill="none" stroke="#000000" stroke-miterlimit="10"/></g><g transform="translate(-54,-78) scale(1,1)"><rect fill="#ffffff" height="15" stroke="none" width="144" x="1248" y="176"/></g><g transform="translate(-54,-78) scale(1,1)"><path d="M 1248 176 L 1392 176 L 1392 191 L 1248 191 L 1248 176 Z Z" fill="none" stroke="#000000" stroke-miterlimit="10"/></g><g transform="translate(-54,-78) scale(1,1)"><rect fill="#ffffff" height="249" stroke="none" width="360" x="1248" y="190"/></g><g transform="translate(-54,-78) scale(1,1)"><path d="M 1248 190 L 1608 190 L 1608 439 L 1248 439 L 1248 190 Z Z" fill="none" stroke="#000000" stroke-miterlimit="10"/></g><g transform="translate(-54,-78) scale(1,1)"><g><path fill="none" stroke="none"/><text fill="#000000" font-family="Arial" font-size="13px" font-style="normal" font-weight="bold" stroke="none" text-decoration="none" x="1380.31640625" y="210.5">servermessages</text></g></g><g transform="translate(-54,-78) scale(1,1)"><rect fill="#C0C0C0" height="104" opacity="0.2" stroke="none" width="191" x="927" y="263"/></g><g transform="translate(-54,-78) scale(1,1)"><rect fill="#ffffff" height="104" stroke="none" width="191" x="920" y="256"/></g><g transform="translate(-54,-78) scale(1,1)"><path d="M 920 256 L 1111 256 L 1111 360 L 920 360 L 920 256 Z Z" fill="none" stroke="#000000" stroke-miterlimit="10"/></g><g transform="translate(-54,-78) scale(1,1)"><path d="M 920 294 L 1111 294" fill="none" stroke="#000000" stroke-miterlimit="10"/></g><g transform="translate(-54,-78) scale(1,1)"><g><path fill="none" stroke="none"/><text fill="#000000" font-family="Arial" font-size="13px" font-style="normal" font-weight="normal" stroke="none" text-decoration="none" x="983.339599609375" y="273.5">«interface»</text></g></g><g transform="translate(-54,-78) scale(1,1)"><g><path fill="none" stroke="none"/><text fill="#000000" font-family="Arial" font-size="13px" font-style="normal" font-weight="bold" stroke="none" text-decoration="none" x="969.98095703125" y="288.5">ServerMessage</text></g></g><g transform="translate(-54,-78) scale(1,1)"><rect fill="#C0C0C0" height="104" opacity="0.2" stroke="none" width="192" x="943" y="607"/></g><g transform="translate(-54,-78) scale(1,1)"><rect fill="#ffffff" height="104" stroke="none" width="192" x="936" y="600"/></g><g transform="translate(-54,-78) scale(1,1)"><path d="M 936 600 L 1128 600 L 1128 704 L 936 704 L 936 600 Z Z" fill="none" stroke="#000000" stroke-miterlimit="10"/></g><g transform="translate(-54,-78) scale(1,1)"><path d="M 936 638 L 1128 638" fill="none" stroke="#000000" stroke-miterlimit="10"/></g><g transform="translate(-54,-78) scale(1,1)"><g><path fill="none" stroke="none"/><text fill="#000000" font-family="Arial" font-size="13px" font-style="normal" font-weight="normal" stroke="none" text-decoration="none" x="999.839599609375" y="617.5">«interface»</text></g></g><g transform="translate(-54,-78) scale(1,1)"><g><path fill="none" stroke="none"/><text fill="#000000" font-family="Arial" font-size="13px" font-style="normal" font-weight="bold" stroke="none" text-decoration="none" x="989.00732421875" y="632.5">ClientMessage</text></g></g><g transform="translate(-54,-78) scale(1,1)"><path d="M 2000 480 L 1752 480 L 1752 649 L 1607 649" fill="none" stroke="#000000" stroke-dasharray="3" stroke-miterlimit="10"/></g><g transform="translate(-54,-78) scale(1,1)"><path d="M 1617.162674857624 644.790482243984 L 1607 649 L 1617.162674857624 653.209517756016" fill="none" stroke="#000000" stroke-miterlimit="10"/></g><g transform="translate(-54,-78) scale(1,1)"><path d="M 1608 305 L 1752 305 L 1752 441 L 2000 441" fill="none" stroke="#000000" stroke-dasharray="3" stroke-miterlimit="10"/></g><g transform="translate(-54,-78) scale(1,1)"><path d="M 1989.837325142376 445.209517756016 L 2000 441 L 1989.837325142376 436.790482243984" fill="none" stroke="#000000" stroke-miterlimit="10"/></g><g transform="translate(-54,-78) scale(1,1)"><path d="M 720 448 L 720 307 L 920 307" fill="none" stroke="#000000" stroke-dasharray="3" stroke-miterlimit="10"/></g><g transform="translate(-54,-78) scale(1,1)"><path d="M 909.8373251423759 311.209517756016 L 920 307 L 909.8373251423758 302.790482243984" fill="none" stroke="#000000" stroke-miterlimit="10"/></g><g transform="translate(-54,-78) scale(1,1)"><path d="M 936 683 L 908 683" fill="none" stroke="#000000" stroke-dasharray="3" stroke-miterlimit="10"/></g><g transform="translate(-54,-78) scale(1,1)"><path d="M 918.1626748576241 678.790482243984 L 908 683 L 918.1626748576241 687.209517756016" fill="none" stroke="#000000" stroke-miterlimit="10"/></g><g transform="translate(-54,-78) scale(1,1)"><rect fill="#C0C0C0" height="400" opacity="0.2" stroke="none" width="364.18310546875" x="551" y="455"/></g><g transform="translate(-54,-78) scale(1,1)"><rect fill="#ffffff" height="400" stroke="none" width="364.18310546875" x="544" y="448"/></g><g transform="translate(-54,-78) scale(1,1)"><path d="M 544 448 L 908.18310546875 448 L 908.18310546875 848 L 544 848 L 544 448 Z Z" fill="none" stroke="#000000" stroke-miterlimit="10"/></g><g transform="translate(-54,-78) scale(1,1)"><path d="M 544 473 L 908.18310546875 473" fill="none" stroke="#000000" stroke-miterlimit="10"/></g><g transform="translate(-54,-78) scale(1,1)"><path d="M 544 601 L 908.18310546875 601" fill="none" stroke="#000000" stroke-miterlimit="10"/></g><g transform="translate(-54,-78) scale(1,1)"><g><path fill="none" stroke="none"/><text fill="#000000" font-family="Arial" font-size="13px" font-style="normal" font-weight="bold" stroke="none" text-decoration="none" x="693.20751953125" y="467.5">Connection</text></g></g><g transform="translate(-54,-78) scale(1,1)"><g><path fill="none" stroke="none"/><text fill="#000000" font-family="Arial" font-size="13px" font-style="normal" font-weight="normal" stroke="none" text-decoration="none" x="549" y="490.5">-socket: Socket</text></g></g><g transform="translate(-54,-78) scale(1,1)"><g><path fill="none" stroke="none"/><text fill="#000000" font-family="Arial" font-size="13px" font-style="normal" font-weight="normal" stroke="none" text-decoration="none" x="549" y="505.5">-server: Server</text></g></g><g transform="translate(-54,-78) scale(1,1)"><g><path fill="none" stroke="none"/><text fill="#000000" font-family="Arial" font-size="13px" font-style="normal" font-weight="normal" stroke="none" text-decoration="none" x="549" y="520.5">-outputStream: ObjectOutputStream</text></g></g><g transform="translate(-54,-78) scale(1,1)"><g><path fill="none" stroke="none"/><text fill="#000000" font-family="Arial" font-size="13px" font-style="normal" font-weight="normal" stroke="none" text-decoration="none" x="549" y="535.5">-inputStream: ObjectInputStream</text></g></g><g transform="translate(-54,-78) scale(1,1)"><g><path fill="none" stroke="none"/><text fill="#000000" font-family="Arial" font-size="13px" font-style="normal" font-weight="normal" stroke="none" text-decoration="none" x="549" y="550.5">-nickname: String</text></g></g><g transform="translate(-54,-78) scale(1,1)"><g><path fill="none" stroke="none"/><text fill="#000000" font-family="Arial" font-size="13px" font-style="normal" font-weight="normal" stroke="none" text-decoration="none" x="549" y="565.5">-gameId: int</text></g></g><g transform="translate(-54,-78) scale(1,1)"><g><path fill="none" stroke="none"/><text fill="#000000" font-family="Arial" font-size="13px" font-style="normal" font-weight="normal" stroke="none" text-decoration="none" x="549" y="580.5">-isActive: boolean</text></g></g><g transform="translate(-54,-78) scale(1,1)"><g><path fill="none" stroke="none"/><text fill="#000000" font-family="Arial" font-size="13px" font-style="normal" font-weight="normal" stroke="none" text-decoration="none" x="549" y="595.5">-state: ConnectionState</text></g></g><g transform="translate(-54,-78) scale(1,1)"><g><path fill="none" stroke="none"/><text fill="#000000" font-family="Arial" font-size="13px" font-style="normal" font-weight="normal" stroke="none" text-decoration="none" x="549" y="618.5">+readFromInputStream(message: ClientMessage)</text></g></g><g transform="translate(-54,-78) scale(1,1)"><g><path fill="none" stroke="none"/><text fill="#000000" font-family="Arial" font-size="13px" font-style="normal" font-weight="normal" stroke="none" text-decoration="none" x="549" y="633.5">+run()</text></g></g><g transform="translate(-54,-78) scale(1,1)"><g><path fill="none" stroke="none"/><text fill="#000000" font-family="Arial" font-size="13px" font-style="normal" font-weight="normal" stroke="none" text-decoration="none" x="549" y="648.5">+closeConnection()</text></g></g><g transform="translate(-54,-78) scale(1,1)"><g><path fill="none" stroke="none"/><text fill="#000000" font-family="Arial" font-size="13px" font-style="normal" font-weight="normal" stroke="none" text-decoration="none" x="549" y="663.5">+askForSize()</text></g></g><g transform="translate(-54,-78) scale(1,1)"><g><path fill="none" stroke="none"/><text fill="#000000" font-family="Arial" font-size="13px" font-style="normal" font-weight="normal" stroke="none" text-decoration="none" x="549" y="678.5">+authentication()</text></g></g><g transform="translate(-54,-78) scale(1,1)"><g><path fill="none" stroke="none"/><text fill="#000000" font-family="Arial" font-size="13px" font-style="normal" font-weight="normal" stroke="none" text-decoration="none" x="549" y="693.5">+invalidMessage()</text></g></g><g transform="translate(-54,-78) scale(1,1)"><g><path fill="none" stroke="none"/><text fill="#000000" font-family="Arial" font-size="13px" font-style="normal" font-weight="normal" stroke="none" text-decoration="none" x="549" y="708.5">+unavailableNickname()</text></g></g><g transform="translate(-54,-78) scale(1,1)"><g><path fill="none" stroke="none"/><text fill="#000000" font-family="Arial" font-size="13px" font-style="normal" font-weight="normal" stroke="none" text-decoration="none" x="549" y="723.5">+invalidSize()</text></g></g><g transform="translate(-54,-78) scale(1,1)"><g><path fill="none" stroke="none"/><text fill="#000000" font-family="Arial" font-size="13px" font-style="normal" font-weight="normal" stroke="none" text-decoration="none" x="549" y="738.5">+waitForPlayers()</text></g></g><g transform="translate(-54,-78) scale(1,1)"><g><path fill="none" stroke="none"/><text fill="#000000" font-family="Arial" font-size="13px" font-style="normal" font-weight="normal" stroke="none" text-decoration="none" x="549" y="753.5">+unavailableNickname()</text></g></g><g transform="translate(-54,-78) scale(1,1)"><g><path fill="none" stroke="none"/><text fill="#000000" font-family="Arial" font-size="13px" font-style="normal" font-weight="normal" stroke="none" text-decoration="none" x="549" y="768.5">+wrongNickname()</text></g></g><g transform="translate(-54,-78) scale(1,1)"><g><path fill="none" stroke="none"/><text fill="#000000" font-family="Arial" font-size="13px" font-style="normal" font-weight="normal" stroke="none" text-decoration="none" x="549" y="783.5">+sendMessage(broadcastRenderable: BroadcasrRenderable)</text></g></g><g transform="translate(-54,-78) scale(1,1)"><path d="M 624 448 L 624 312 L 506 312" fill="none" stroke="#000000" stroke-miterlimit="10"/></g><g transform="translate(-54,-78) scale(1,1)"><path d="M 516.1626748576241 307.790482243984 L 506 312 L 516.1626748576241 316.209517756016 L 528 312" fill="#000000" stroke="none"/></g><g transform="translate(-54,-78) scale(1,1)"><path d="M 516.1626748576241 307.790482243984 L 506 312 L 516.1626748576241 316.209517756016 L 528 312 L 516.1626748576241 307.790482243984" fill="none" stroke="#000000" stroke-miterlimit="10"/></g><g transform="translate(-54,-78) scale(1,1)"><g><path fill="none" stroke="none"/><text fill="#000000" font-family="Arial" font-size="13px" font-style="normal" font-weight="normal" stroke="none" text-decoration="none" x="623.5" y="432.5">0...n</text></g></g><g transform="translate(-54,-78) scale(1,1)"><g><path fill="none" stroke="none"/><text fill="#000000" font-family="Arial" font-size="13px" font-style="normal" font-weight="normal" stroke="none" text-decoration="none" x="523.5" y="305.5">1</text></g></g><g transform="translate(-54,-78) scale(1,1)"><path d="M 544 712 L 463 712" fill="none" stroke="#000000" stroke-miterlimit="10"/></g><g transform="translate(-54,-78) scale(1,1)"><path d="M 473.16267485762415 707.790482243984 L 463 712 L 473.16267485762415 716.209517756016" fill="none" stroke="#000000" stroke-miterlimit="10"/></g><g transform="translate(-54,-78) scale(1,1)"><rect fill="#C0C0C0" height="111" opacity="0.2" stroke="none" width="263" x="543" y="167"/></g><g transform="translate(-54,-78) scale(1,1)"><rect fill="#ffffff" height="111" stroke="none" width="263" x="536" y="160"/></g><g transform="translate(-54,-78) scale(1,1)"><path d="M 536 160 L 799 160 L 799 271 L 536 271 L 536 160 Z Z" fill="none" stroke="#000000" stroke-miterlimit="10"/></g><g transform="translate(-54,-78) scale(1,1)"><path d="M 536 185 L 799 185" fill="none" stroke="#000000" stroke-miterlimit="10"/></g><g transform="translate(-54,-78) scale(1,1)"><path d="M 536 195 L 799 195" fill="none" stroke="#000000" stroke-miterlimit="10"/></g><g transform="translate(-54,-78) scale(1,1)"><g><path fill="none" stroke="none"/><text fill="#000000" font-family="Arial" font-size="13px" font-style="normal" font-weight="bold" stroke="none" text-decoration="none" x="636.7900390625" y="179.5">ServerApp</text></g></g><g transform="translate(-54,-78) scale(1,1)"><g><path fill="none" stroke="none"/><text fill="#000000" font-family="Arial" font-size="13px" font-style="normal" font-weight="normal" stroke="none" text-decoration="none" x="541" y="212.5">+main()</text></g></g><g transform="translate(-54,-78) scale(1,1)"><path d="M 507 255 L 535 248" fill="none" stroke="#000000" stroke-miterlimit="10"/></g><g transform="translate(-54,-78) scale(1,1)"><path d="M 526.1617152255172 254.54864277886242 L 535 248 L 524.1197991854035 246.3809786184074" fill="none" stroke="#000000" stroke-miterlimit="10"/></g><g transform="translate(-54,-78) scale(1,1)"><rect fill="#C0C0C0" height="15" opacity="0.2" stroke="none" width="208" x="351" y="935"/></g><g transform="translate(-54,-78) scale(1,1)"><rect fill="#C0C0C0" height="153" opacity="0.2" stroke="none" width="520" x="351" y="949"/></g><g transform="translate(-54,-78) scale(1,1)"><rect fill="#ffffff" height="152" stroke="none" width="520" x="344" y="943"/></g><g transform="translate(-54,-78) scale(1,1)"><path d="M 344 943 L 864 943 L 864 1095 L 344 1095 L 344 943 Z Z" fill="none" stroke="#000000" stroke-miterlimit="10"/></g><g transform="translate(-54,-78) scale(1,1)"><rect fill="#ffffff" height="15" stroke="none" width="208" x="344" y="928"/></g><g transform="translate(-54,-78) scale(1,1)"><path d="M 344 928 L 552 928 L 552 943 L 344 943 L 344 928 Z Z" fill="none" stroke="#000000" stroke-miterlimit="10"/></g><g transform="translate(-54,-78) scale(1,1)"><rect fill="#ffffff" height="153" stroke="none" width="520" x="344" y="942"/></g><g transform="translate(-54,-78) scale(1,1)"><path d="M 344 942 L 864 942 L 864 1095 L 344 1095 L 344 942 Z Z" fill="none" stroke="#000000" stroke-miterlimit="10"/></g><g transform="translate(-54,-78) scale(1,1)"><g><path fill="none" stroke="none"/><text fill="#000000" font-family="Arial" font-size="13px" font-style="normal" font-weight="bold" stroke="none" text-decoration="none" x="589.908203125" y="962.5">state</text></g></g><g transform="translate(-54,-78) scale(1,1)"><rect fill="#C0C0C0" height="87" opacity="0.2" stroke="none" width="236.24609375" x="527" y="991"/></g><g transform="translate(-54,-78) scale(1,1)"><rect fill="#ffffff" height="87" stroke="none" width="236.24609375" x="520" y="984"/></g><g transform="translate(-54,-78) scale(1,1)"><path d="M 520 984 L 756.24609375 984 L 756.24609375 1071 L 520 1071 L 520 984 Z Z" fill="none" stroke="#000000" stroke-miterlimit="10"/></g><g transform="translate(-54,-78) scale(1,1)"><path d="M 520 1009 L 756.24609375 1009" fill="none" stroke="#000000" stroke-miterlimit="10"/></g><g transform="translate(-54,-78) scale(1,1)"><path d="M 520 1019 L 756.24609375 1019" fill="none" stroke="#000000" stroke-miterlimit="10"/></g><g transform="translate(-54,-78) scale(1,1)"><g><path fill="none" stroke="none"/><text fill="#000000" font-family="Arial" font-size="13px" font-style="italic" font-weight="bold" stroke="none" text-decoration="none" x="595.158935546875" y="1003.5">ConnectionState</text></g></g><g transform="translate(-54,-78) scale(1,1)"><g><path fill="none" stroke="none"/><text fill="#000000" font-family="Arial" font-size="13px" font-style="normal" font-weight="normal" stroke="none" text-decoration="none" x="525" y="1036.5">+messageAllowed(message: Message)</text></g></g><g transform="translate(-54,-78) scale(1,1)"><g><path fill="none" stroke="none"/><text fill="#000000" font-family="Arial" font-size="13px" font-style="normal" font-weight="normal" stroke="none" text-decoration="none" x="525" y="1051.5">+invalidMessage()</text></g></g><g transform="translate(-54,-78) scale(1,1)"><g><path fill="none" stroke="none"/><text fill="#000000" font-family="Arial" font-size="13px" font-style="normal" font-weight="normal" stroke="none" text-decoration="none" x="525" y="1066.5">+readMessage(message: Message)</text></g></g><g transform="translate(-54,-78) scale(1,1)"><rect fill="#C0C0C0" height="55" opacity="0.2" stroke="none" width="131.78271484375" x="367" y="975"/></g><g transform="translate(-54,-78) scale(1,1)"><rect fill="#ffffff" height="55" stroke="none" width="131.78271484375" x="360" y="968"/></g><g transform="translate(-54,-78) scale(1,1)"><path d="M 360 968 L 491.78271484375 968 L 491.78271484375 1023 L 360 1023 L 360 968 Z Z" fill="none" stroke="#000000" stroke-miterlimit="10"/></g><g transform="translate(-54,-78) scale(1,1)"><path d="M 360 993 L 491.78271484375 993" fill="none" stroke="#000000" stroke-miterlimit="10"/></g><g transform="translate(-54,-78) scale(1,1)"><path d="M 360 1003 L 491.78271484375 1003" fill="none" stroke="#000000" stroke-miterlimit="10"/></g><g transform="translate(-54,-78) scale(1,1)"><g><path fill="none" stroke="none"/><text fill="#000000" font-family="Arial" font-size="13px" font-style="normal" font-weight="bold" stroke="none" text-decoration="none" x="369.517822265625" y="987.5">AuthenticationState</text></g></g><g transform="translate(-54,-78) scale(1,1)"><rect fill="#C0C0C0" height="47" opacity="0.2" stroke="none" width="144.31298828125" x="367" y="1047"/></g><g transform="translate(-54,-78) scale(1,1)"><rect fill="#ffffff" height="47" stroke="none" width="144.31298828125" x="360" y="1040"/></g><g transform="translate(-54,-78) scale(1,1)"><path d="M 360 1040 L 504.31298828125 1040 L 504.31298828125 1087 L 360 1087 L 360 1040 Z Z" fill="none" stroke="#000000" stroke-miterlimit="10"/></g><g transform="translate(-54,-78) scale(1,1)"><path d="M 360 1065 L 504.31298828125 1065" fill="none" stroke="#000000" stroke-miterlimit="10"/></g><g transform="translate(-54,-78) scale(1,1)"><path d="M 360 1075 L 504.31298828125 1075" fill="none" stroke="#000000" stroke-miterlimit="10"/></g><g transform="translate(-54,-78) scale(1,1)"><g><path fill="none" stroke="none"/><text fill="#000000" font-family="Arial" font-size="13px" font-style="normal" font-weight="bold" stroke="none" text-decoration="none" x="368.095947265625" y="1059.5">WaitingForGameState</text></g></g><g transform="translate(-54,-78) scale(1,1)"><rect fill="#C0C0C0" height="47" opacity="0.2" stroke="none" width="87.025390625" x="775" y="967"/></g><g transform="translate(-54,-78) scale(1,1)"><rect fill="#ffffff" height="47" stroke="none" width="87.025390625" x="768" y="960"/></g><g transform="translate(-54,-78) scale(1,1)"><path d="M 768 960 L 855.025390625 960 L 855.025390625 1007 L 768 1007 L 768 960 Z Z" fill="none" stroke="#000000" stroke-miterlimit="10"/></g><g transform="translate(-54,-78) scale(1,1)"><path d="M 768 985 L 855.025390625 985" fill="none" stroke="#000000" stroke-miterlimit="10"/></g><g transform="translate(-54,-78) scale(1,1)"><path d="M 768 995 L 855.025390625 995" fill="none" stroke="#000000" stroke-miterlimit="10"/></g><g transform="translate(-54,-78) scale(1,1)"><g><path fill="none" stroke="none"/><text fill="#000000" font-family="Arial" font-size="13px" font-style="normal" font-weight="bold" stroke="none" text-decoration="none" x="775.016845703125" y="979.5">PlayingState</text></g></g><g transform="translate(-54,-78) scale(1,1)"><path d="M 493 1005 L 519 1009" fill="none" stroke="#000000" stroke-miterlimit="10"/></g><g transform="translate(-54,-78) scale(1,1)"><path d="M 508.31541238125203 1011.6152604874653 L 519 1009 L 509.5955872153455 1003.2941240658574" fill="none" stroke="#000000" stroke-miterlimit="10"/></g><g transform="translate(-54,-78) scale(1,1)"><path d="M 505 1050 L 519 1048" fill="none" stroke="#000000" stroke-miterlimit="10"/></g><g transform="translate(-54,-78) scale(1,1)"><path d="M 509.53478088061274 1053.6044292324898 L 519 1048 L 508.3441494602911 1045.2700092902382" fill="none" stroke="#000000" stroke-miterlimit="10"/></g><g transform="translate(-54,-78) scale(1,1)"><path d="M 767 994 L 757 997" fill="none" stroke="#000000" stroke-miterlimit="10"/></g><g transform="translate(-54,-78) scale(1,1)"><path d="M 765.5244810803433 990.0477901131462 L 757 997 L 767.9436731332337 998.1117636227807" fill="none" stroke="#000000" stroke-miterlimit="10"/></g><g transform="translate(-54,-78) scale(1,1)"><path d="M 648 983 L 679 849" fill="none" stroke="#000000" stroke-miterlimit="10"/></g><g transform="translate(-54,-78) scale(1,1)"><path d="M 680.8106304697238 859.8499593226015 L 679 849 L 672.6082292707549 857.9523888959744" fill="none" stroke="#000000" stroke-miterlimit="10"/></g></g></svg>